<svg xmlns="http://www.w3.org/2000/svg"><symbol id="ph-regular-apple-logo" viewBox="0 0 256 256"><path d="M223.3,169.59a8.07,8.07,0,0,0-2.8-3.4C203.53,154.53,200,134.64,200,120c0-17.67,13.47-33.06,21.5-40.67a8,8,0,0,0,0-11.62C208.82,55.74,187.82,48,168,48a72.2,72.2,0,0,0-40,12.13,71.56,71.56,0,0,0-90.71,9.09A74.63,74.63,0,0,0,16,123.4a127.06,127.06,0,0,0,40.14,89.73A39.8,39.8,0,0,0,83.59,224h87.68a39.84,39.84,0,0,0,29.12-12.57,125,125,0,0,0,17.82-24.6C225.23,174,224.33,172,223.3,169.59Zm-34.63,30.94a23.76,23.76,0,0,1-17.4,7.47H83.59a23.82,23.82,0,0,1-16.44-6.51A111.14,111.14,0,0,1,32,123,58.5,58.5,0,0,1,48.65,80.47,54.81,54.81,0,0,1,88,64h.78A55.45,55.45,0,0,1,123,76.28a8,8,0,0,0,10,0A55.44,55.44,0,0,1,168,64a70.64,70.64,0,0,1,36,10.35c-13,14.52-20,30.47-20,45.65,0,23.77,7.64,42.73,22.18,55.3A105.82,105.82,0,0,1,188.67,200.53ZM128.23,30A40,40,0,0,1,167,0h1a8,8,0,0,1,0,16h-1a24,24,0,0,0-23.24,18,8,8,0,1,1-15.5-4Z"/></symbol><symbol id="ph-regular-arrow-clockwise" viewBox="0 0 256 256"><path d="M240,56v48a8,8,0,0,1-8,8H184a8,8,0,0,1,0-16H211.4L184.81,71.64l-.25-.24a80,80,0,1,0-1.67,114.78,8,8,0,0,1,11,11.63A95.44,95.44,0,0,1,128,224h-1.32A96,96,0,1,1,195.75,60L224,85.8V56a8,8,0,1,1,16,0Z"/></symbol><symbol id="ph-regular-arrow-left" viewBox="0 0 256 256"><path d="M224,128a8,8,0,0,1-8,8H59.31l58.35,58.34a8,8,0,0,1-11.32,11.32l-72-72a8,8,0,0,1,0-11.32l72-72a8,8,0,0,1,11.32,11.32L59.31,120H216A8,8,0,0,1,224,128Z"/></symbol><symbol id="ph-regular-arrow-right" viewBox="0 0 256 256"><path d="M221.66,133.66l-72,72a8,8,0,0,1-11.32-11.32L196.69,136H40a8,8,0,0,1,0-16H196.69L138.34,61.66a8,8,0,0,1,11.32-11.32l72,72A8,8,0,0,1,221.66,133.66Z"/></symbol><symbol id="ph-regular-arrow-square-out" viewBox="0 0 256 256"><path d="M224,104a8,8,0,0,1-16,0V59.32l-66.33,66.34a8,8,0,0,1-11.32-11.32L196.68,48H152a8,8,0,0,1,0-16h64a8,8,0,0,1,8,8Zm-40,24a8,8,0,0,0-8,8v72H48V80h72a8,8,0,0,0,0-16H48A16,16,0,0,0,32,80V208a16,16,0,0,0,16,16H176a16,16,0,0,0,16-16V136A8,8,0,0,0,184,128Z"/></symbol><symbol id="ph-regular-arrows-out-line-horizontal" viewBox="0 0 256 256"><path d="M136,40V216a8,8,0,0,1-16,0V40a8,8,0,0,1,16,0ZM96,120H35.31l18.35-18.34A8,8,0,0,0,42.34,90.34l-32,32a8,8,0,0,0,0,11.32l32,32a8,8,0,0,0,11.32-11.32L35.31,136H96a8,8,0,0,0,0-16Zm149.66,2.34-32-32a8,8,0,0,0-11.32,11.32L220.69,120H160a8,8,0,0,0,0,16h60.69l-18.35,18.34a8,8,0,0,0,11.32,11.32l32-32A8,8,0,0,0,245.66,122.34Z"/></symbol><symbol id="ph-regular-article" viewBox="0 0 256 256"><path d="M216,40H40A16,16,0,0,0,24,56V200a16,16,0,0,0,16,16H216a16,16,0,0,0,16-16V56A16,16,0,0,0,216,40Zm0,160H40V56H216V200ZM184,96a8,8,0,0,1-8,8H80a8,8,0,0,1,0-16h96A8,8,0,0,1,184,96Zm0,32a8,8,0,0,1-8,8H80a8,8,0,0,1,0-16h96A8,8,0,0,1,184,128Zm0,32a8,8,0,0,1-8,8H80a8,8,0,0,1,0-16h96A8,8,0,0,1,184,160Z"/></symbol><symbol id="ph-regular-book-open" viewBox="0 0 256 256"><path d="M232,48H160a40,40,0,0,0-32,16A40,40,0,0,0,96,48H24a8,8,0,0,0-8,8V200a8,8,0,0,0,8,8H96a24,24,0,0,1,24,24,8,8,0,0,0,16,0,24,24,0,0,1,24-24h72a8,8,0,0,0,8-8V56A8,8,0,0,0,232,48ZM96,192H32V64H96a24,24,0,0,1,24,24V200A39.81,39.81,0,0,0,96,192Zm128,0H160a39.81,39.81,0,0,0-24,8V88a24,24,0,0,1,24-24h64Z"/></symbol><symbol id="ph-regular-broadcast" viewBox="0 0 256 256"><path d="M128,88a40,40,0,1,0,40,40A40,40,0,0,0,128,88Zm0,64a24,24,0,1,1,24-24A24,24,0,0,1,128,152Zm73.71,7.14a80,80,0,0,1-14.08,22.2,8,8,0,0,1-11.92-10.67,63.95,63.95,0,0,0,0-85.33,8,8,0,1,1,11.92-10.67,80.08,80.08,0,0,1,14.08,84.47ZM69,103.09a64,64,0,0,0,11.26,67.58,8,8,0,0,1-11.92,10.67,79.93,79.93,0,0,1,0-106.67A8,8,0,1,1,80.29,85.34,63.77,63.77,0,0,0,69,103.09ZM248,128a119.58,119.58,0,0,1-34.29,84,8,8,0,1,1-11.42-11.2,103.9,103.9,0,0,0,0-145.56A8,8,0,1,1,213.71,44,119.58,119.58,0,0,1,248,128ZM53.71,200.78A8,8,0,1,1,42.29,212a119.87,119.87,0,0,1,0-168,8,8,0,1,1,11.42,11.2,103.9,103.9,0,0,0,0,145.56Z"/></symbol><symbol id="ph-regular-caret-down" viewBox="0 0 256 256"><path d="M213.66,101.66l-80,80a8,8,0,0,1-11.32,0l-80-80A8,8,0,0,1,53.66,90.34L128,164.69l74.34-74.35a8,8,0,0,1,11.32,11.32Z"/></symbol><symbol id="ph-regular-caret-left" viewBox="0 0 256 256"><path d="M165.66,202.34a8,8,0,0,1-11.32,11.32l-80-80a8,8,0,0,1,0-11.32l80-80a8,8,0,0,1,11.32,11.32L91.31,128Z"/></symbol><symbol id="ph-regular-caret-right" viewBox="0 0 256 256"><path d="M181.66,133.66l-80,80a8,8,0,0,1-11.32-11.32L164.69,128,90.34,53.66a8,8,0,0,1,11.32-11.32l80,80A8,8,0,0,1,181.66,133.66Z"/></symbol><symbol id="ph-regular-check" viewBox="0 0 256 256"><path d="M229.66,77.66l-128,128a8,8,0,0,1-11.32,0l-56-56a8,8,0,0,1,11.32-11.32L96,188.69,218.34,66.34a8,8,0,0,1,11.32,11.32Z"/></symbol><symbol id="ph-regular-check-circle" viewBox="0 0 256 256"><path d="M173.66,98.34a8,8,0,0,1,0,11.32l-56,56a8,8,0,0,1-11.32,0l-24-24a8,8,0,0,1,11.32-11.32L112,148.69l50.34-50.35A8,8,0,0,1,173.66,98.34ZM232,128A104,104,0,1,1,128,24,104.11,104.11,0,0,1,232,128Zm-16,0a88,88,0,1,0-88,88A88.1,88.1,0,0,0,216,128Z"/></symbol><symbol id="ph-regular-circle-notch" viewBox="0 0 256 256"><path d="M232,128a104,104,0,0,1-208,0c0-41,23.81-78.36,60.66-95.27a8,8,0,0,1,6.68,14.54C60.15,61.59,40,93.27,40,128a88,88,0,0,0,176,0c0-34.73-20.15-66.41-51.34-80.73a8,8,0,0,1,6.68-14.54C208.19,49.64,232,87,232,128Z"/></symbol><symbol id="ph-regular-clipboard-text" viewBox="0 0 256 256"><path d="M168,152a8,8,0,0,1-8,8H96a8,8,0,0,1,0-16h64A8,8,0,0,1,168,152Zm-8-40H96a8,8,0,0,0,0,16h64a8,8,0,0,0,0-16Zm56-64V216a16,16,0,0,1-16,16H56a16,16,0,0,1-16-16V48A16,16,0,0,1,56,32H92.26a47.92,47.92,0,0,1,71.48,0H200A16,16,0,0,1,216,48ZM96,64h64a32,32,0,0,0-64,0ZM200,48H173.25A47.93,47.93,0,0,1,176,64v8a8,8,0,0,1-8,8H88a8,8,0,0,1-8-8V64a47.93,47.93,0,0,1,2.75-16H56V216H200Z"/></symbol><symbol id="ph-regular-copy" viewBox="0 0 256 256"><path d="M216,32H88a8,8,0,0,0-8,8V80H40a8,8,0,0,0-8,8V216a8,8,0,0,0,8,8H168a8,8,0,0,0,8-8V176h40a8,8,0,0,0,8-8V40A8,8,0,0,0,216,32ZM160,208H48V96H160Zm48-48H176V88a8,8,0,0,0-8-8H96V48H208Z"/></symbol><symbol id="ph-regular-cpu" viewBox="0 0 256 256"><path d="M152,96H104a8,8,0,0,0-8,8v48a8,8,0,0,0,8,8h48a8,8,0,0,0,8-8V104A8,8,0,0,0,152,96Zm-8,48H112V112h32Zm88,0H216V112h16a8,8,0,0,0,0-16H216V56a16,16,0,0,0-16-16H160V24a8,8,0,0,0-16,0V40H112V24a8,8,0,0,0-16,0V40H56A16,16,0,0,0,40,56V96H24a8,8,0,0,0,0,16H40v32H24a8,8,0,0,0,0,16H40v40a16,16,0,0,0,16,16H96v16a8,8,0,0,0,16,0V216h32v16a8,8,0,0,0,16,0V216h40a16,16,0,0,0,16-16V160h16a8,8,0,0,0,0-16Zm-32,56H56V56H200v95.87s0,.09,0,.13,0,.09,0,.13V200Z"/></symbol><symbol id="ph-regular-database" viewBox="0 0 256 256"><path d="M128,24C74.17,24,32,48.6,32,80v96c0,31.4,42.17,56,96,56s96-24.6,96-56V80C224,48.6,181.83,24,128,24Zm80,104c0,9.62-7.88,19.43-21.61,26.92C170.93,163.35,150.19,168,128,168s-42.93-4.65-58.39-13.08C55.88,147.43,48,137.62,48,128V111.36c17.06,15,46.23,24.64,80,24.64s62.94-9.68,80-24.64ZM69.61,53.08C85.07,44.65,105.81,40,128,40s42.93,4.65,58.39,13.08C200.12,60.57,208,70.38,208,80s-7.88,19.43-21.61,26.92C170.93,115.35,150.19,120,128,120s-42.93-4.65-58.39-13.08C55.88,99.43,48,89.62,48,80S55.88,60.57,69.61,53.08ZM186.39,202.92C170.93,211.35,150.19,216,128,216s-42.93-4.65-58.39-13.08C55.88,195.43,48,185.62,48,176V159.36c17.06,15,46.23,24.64,80,24.64s62.94-9.68,80-24.64V176C208,185.62,200.12,195.43,186.39,202.92Z"/></symbol><symbol id="ph-regular-download-simple" viewBox="0 0 256 256"><path d="M224,144v64a8,8,0,0,1-8,8H40a8,8,0,0,1-8-8V144a8,8,0,0,1,16,0v56H208V144a8,8,0,0,1,16,0Zm-101.66,5.66a8,8,0,0,0,11.32,0l40-40a8,8,0,0,0-11.32-11.32L136,124.69V32a8,8,0,0,0-16,0v92.69L93.66,98.34a8,8,0,0,0-11.32,11.32Z"/></symbol><symbol id="ph-regular-eye" viewBox="0 0 256 256"><path d="M247.31,124.76c-.35-.79-8.82-19.58-27.65-38.41C194.57,61.26,162.88,48,128,48S61.43,61.26,36.34,86.35C17.51,105.18,9,124,8.69,124.76a8,8,0,0,0,0,6.5c.35.79,8.82,19.57,27.65,38.4C61.43,194.74,93.12,208,128,208s66.57-13.26,91.66-38.34c18.83-18.83,27.3-37.61,27.65-38.4A8,8,0,0,0,247.31,124.76ZM128,192c-30.78,0-57.67-11.19-79.93-33.25A133.47,133.47,0,0,1,25,128,133.33,133.33,0,0,1,48.07,97.25C70.33,75.19,97.22,64,128,64s57.67,11.19,79.93,33.25A133.46,133.46,0,0,1,231.05,128C223.84,141.46,192.43,192,128,192Zm0-112a48,48,0,1,0,48,48A48.05,48.05,0,0,0,128,80Zm0,80a32,32,0,1,1,32-32A32,32,0,0,1,128,160Z"/></symbol><symbol id="ph-regular-eye-slash" viewBox="0 0 256 256"><path d="M53.92,34.62A8,8,0,1,0,42.08,45.38L61.32,66.55C25,88.84,9.38,123.2,8.69,124.76a8,8,0,0,0,0,6.5c.35.79,8.82,19.57,27.65,38.4C61.43,194.74,93.12,208,128,208a127.11,127.11,0,0,0,52.07-10.83l22,24.21a8,8,0,1,0,11.84-10.76Zm47.33,75.84,41.67,45.85a32,32,0,0,1-41.67-45.85ZM128,192c-30.78,0-57.67-11.19-79.93-33.25A133.16,133.16,0,0,1,25,128c4.69-8.79,19.66-33.39,47.35-49.38l18,19.75a48,48,0,0,0,63.66,70l14.73,16.2A112,112,0,0,1,128,192Zm6-95.43a8,8,0,0,1,3-15.72,48.16,48.16,0,0,1,38.77,42.64,8,8,0,0,1-7.22,8.71,6.39,6.39,0,0,1-.75,0,8,8,0,0,1-8-7.26A32.09,32.09,0,0,0,134,96.57Zm113.28,34.69c-.42.94-10.55,23.37-33.36,43.8a8,8,0,1,1-10.67-11.92A132.77,132.77,0,0,0,231.05,128a133.15,133.15,0,0,0-23.12-30.77C185.67,75.19,158.78,64,128,64a118.37,118.37,0,0,0-19.36,1.57A8,8,0,1,1,106,49.79,134,134,0,0,1,128,48c34.88,0,66.57,13.26,91.66,38.35,18.83,18.83,27.3,37.62,27.65,38.41A8,8,0,0,1,247.31,131.26Z"/></symbol><symbol id="ph-regular-file" viewBox="0 0 256 256"><path d="M213.66,82.34l-56-56A8,8,0,0,0,152,24H56A16,16,0,0,0,40,40V216a16,16,0,0,0,16,16H200a16,16,0,0,0,16-16V88A8,8,0,0,0,213.66,82.34ZM160,51.31,188.69,80H160ZM200,216H56V40h88V88a8,8,0,0,0,8,8h48V216Z"/></symbol><symbol id="ph-regular-file-arrow-up" viewBox="0 0 256 256"><path d="M213.66,82.34l-56-56A8,8,0,0,0,152,24H56A16,16,0,0,0,40,40V216a16,16,0,0,0,16,16H200a16,16,0,0,0,16-16V88A8,8,0,0,0,213.66,82.34ZM160,51.31,188.69,80H160ZM200,216H56V40h88V88a8,8,0,0,0,8,8h48V216Zm-42.34-77.66a8,8,0,0,1-11.32,11.32L136,139.31V184a8,8,0,0,1-16,0V139.31l-10.34,10.35a8,8,0,0,1-11.32-11.32l24-24a8,8,0,0,1,11.32,0Z"/></symbol><symbol id="ph-regular-file-doc" viewBox="0 0 256 256"><path d="M52,144H36a8,8,0,0,0-8,8v56a8,8,0,0,0,8,8H52a36,36,0,0,0,0-72Zm0,56H44V160h8a20,20,0,0,1,0,40Zm169.53-4.91a8,8,0,0,1,.25,11.31A30.06,30.06,0,0,1,200,216c-17.65,0-32-16.15-32-36s14.35-36,32-36a30.06,30.06,0,0,1,21.78,9.6,8,8,0,0,1-11.56,11.06A14.24,14.24,0,0,0,200,160c-8.82,0-16,9-16,20s7.18,20,16,20a14.24,14.24,0,0,0,10.22-4.66A8,8,0,0,1,221.53,195.09ZM128,144c-17.65,0-32,16.15-32,36s14.35,36,32,36,32-16.15,32-36S145.65,144,128,144Zm0,56c-8.82,0-16-9-16-20s7.18-20,16-20,16,9,16,20S136.82,200,128,200ZM48,120a8,8,0,0,0,8-8V40h88V88a8,8,0,0,0,8,8h48v16a8,8,0,0,0,16,0V88a8,8,0,0,0-2.34-5.66l-56-56A8,8,0,0,0,152,24H56A16,16,0,0,0,40,40v72A8,8,0,0,0,48,120ZM160,51.31,188.69,80H160Z"/></symbol><symbol id="ph-regular-file-html" viewBox="0 0 256 256"><path d="M216,120V88a8,8,0,0,0-2.34-5.66l-56-56A8,8,0,0,0,152,24H56A16,16,0,0,0,40,40v80a8,8,0,0,0,16,0V40h88V88a8,8,0,0,0,8,8h48v24a8,8,0,0,0,16,0ZM160,51.31,188.69,80H160ZM68,160v48a8,8,0,0,1-16,0V192H32v16a8,8,0,0,1-16,0V160a8,8,0,0,1,16,0v16H52V160a8,8,0,0,1,16,0Zm56,0a8,8,0,0,1-8,8h-8v40a8,8,0,0,1-16,0V168H84a8,8,0,0,1,0-16h32A8,8,0,0,1,124,160Zm72,0v48a8,8,0,0,1-16,0V184l-9.6,12.8a8,8,0,0,1-12.8,0L148,184v24a8,8,0,0,1-16,0V160a8,8,0,0,1,14.4-4.8L164,178.67l17.6-23.47A8,8,0,0,1,196,160Zm56,48a8,8,0,0,1-8,8H216a8,8,0,0,1-8-8V160a8,8,0,0,1,16,0v40h20A8,8,0,0,1,252,208Z"/></symbol><symbol id="ph-regular-file-image" viewBox="0 0 256 256"><path d="M110.66,147.56a8,8,0,0,0-13.32,0L76.49,178.85l-9.76-15.18a8,8,0,0,0-13.46,0l-36,56A8,8,0,0,0,24,232H152a8,8,0,0,0,6.66-12.44ZM38.65,216,60,182.79l9.63,15a8,8,0,0,0,13.39.11l21-31.47L137.05,216Zm175-133.66-56-56A8,8,0,0,0,152,24H56A16,16,0,0,0,40,40v88a8,8,0,0,0,16,0V40h88V88a8,8,0,0,0,8,8h48V216h-8a8,8,0,0,0,0,16h8a16,16,0,0,0,16-16V88A8,8,0,0,0,213.66,82.34ZM160,51.31,188.69,80H160Z"/></symbol><symbol id="ph-regular-file-pdf" viewBox="0 0 256 256"><path d="M224,152a8,8,0,0,1-8,8H192v16h16a8,8,0,0,1,0,16H192v16a8,8,0,0,1-16,0V152a8,8,0,0,1,8-8h32A8,8,0,0,1,224,152ZM92,172a28,28,0,0,1-28,28H56v8a8,8,0,0,1-16,0V152a8,8,0,0,1,8-8H64A28,28,0,0,1,92,172Zm-16,0a12,12,0,0,0-12-12H56v24h8A12,12,0,0,0,76,172Zm88,8a36,36,0,0,1-36,36H112a8,8,0,0,1-8-8V152a8,8,0,0,1,8-8h16A36,36,0,0,1,164,180Zm-16,0a20,20,0,0,0-20-20h-8v40h8A20,20,0,0,0,148,180ZM40,112V40A16,16,0,0,1,56,24h96a8,8,0,0,1,5.66,2.34l56,56A8,8,0,0,1,216,88v24a8,8,0,0,1-16,0V96H152a8,8,0,0,1-8-8V40H56v72a8,8,0,0,1-16,0ZM160,80h28.69L160,51.31Z"/></symbol><symbol id="ph-regular-file-ppt" viewBox="0 0 256 256"><path d="M224,152a8,8,0,0,1-8,8H204v48a8,8,0,0,1-16,0V160H176a8,8,0,0,1,0-16h40A8,8,0,0,1,224,152ZM92,172a28,28,0,0,1-28,28H56v8a8,8,0,0,1-16,0V152a8,8,0,0,1,8-8H64A28,28,0,0,1,92,172Zm-16,0a12,12,0,0,0-12-12H56v24h8A12,12,0,0,0,76,172Zm84,0a28,28,0,0,1-28,28h-8v8a8,8,0,0,1-16,0V152a8,8,0,0,1,8-8h16A28,28,0,0,1,160,172Zm-16,0a12,12,0,0,0-12-12h-8v24h8A12,12,0,0,0,144,172ZM40,112V40A16,16,0,0,1,56,24h96a8,8,0,0,1,5.66,2.34l56,56A8,8,0,0,1,216,88v24a8,8,0,0,1-16,0V96H152a8,8,0,0,1-8-8V40H56v72a8,8,0,0,1-16,0ZM160,80h28.69L160,51.31Z"/></symbol><symbol id="ph-regular-file-text" viewBox="0 0 256 256"><path d="M213.66,82.34l-56-56A8,8,0,0,0,152,24H56A16,16,0,0,0,40,40V216a16,16,0,0,0,16,16H200a16,16,0,0,0,16-16V88A8,8,0,0,0,213.66,82.34ZM160,51.31,188.69,80H160ZM200,216H56V40h88V88a8,8,0,0,0,8,8h48V216Zm-32-80a8,8,0,0,1-8,8H96a8,8,0,0,1,0-16h64A8,8,0,0,1,168,136Zm0,32a8,8,0,0,1-8,8H96a8,8,0,0,1,0-16h64A8,8,0,0,1,168,168Z"/></symbol><symbol id="ph-regular-file-xls" viewBox="0 0 256 256"><path d="M156,208a8,8,0,0,1-8,8H120a8,8,0,0,1-8-8V152a8,8,0,0,1,16,0v48h20A8,8,0,0,1,156,208ZM92.65,145.49a8,8,0,0,0-11.16,1.86L68,166.24,54.51,147.35a8,8,0,1,0-13,9.3L58.17,180,41.49,203.35a8,8,0,0,0,13,9.3L68,193.76l13.49,18.89a8,8,0,0,0,13-9.3L77.83,180l16.68-23.35A8,8,0,0,0,92.65,145.49Zm98.94,25.82c-4-1.16-8.14-2.35-10.45-3.84-1.25-.82-1.23-1-1.12-1.9a4.54,4.54,0,0,1,2-3.67c4.6-3.12,15.34-1.72,19.82-.56a8,8,0,0,0,4.07-15.48c-2.11-.55-21-5.22-32.83,2.76a20.58,20.58,0,0,0-8.95,14.95c-2,15.88,13.65,20.41,23,23.11,12.06,3.49,13.12,4.92,12.78,7.59-.31,2.41-1.26,3.33-2.15,3.93-4.6,3.06-15.16,1.55-19.54.35A8,8,0,0,0,173.93,214a60.63,60.63,0,0,0,15.19,2c5.82,0,12.3-1,17.49-4.46a20.81,20.81,0,0,0,9.18-15.23C218,179,201.48,174.17,191.59,171.31ZM40,112V40A16,16,0,0,1,56,24h96a8,8,0,0,1,5.66,2.34l56,56A8,8,0,0,1,216,88v24a8,8,0,1,1-16,0V96H152a8,8,0,0,1-8-8V40H56v72a8,8,0,0,1-16,0ZM160,80h28.68L160,51.31Z"/></symbol><symbol id="ph-regular-files" viewBox="0 0 256 256"><path d="M213.66,66.34l-40-40A8,8,0,0,0,168,24H88A16,16,0,0,0,72,40V56H56A16,16,0,0,0,40,72V216a16,16,0,0,0,16,16H168a16,16,0,0,0,16-16V200h16a16,16,0,0,0,16-16V72A8,8,0,0,0,213.66,66.34ZM168,216H56V72h76.69L168,107.31v84.53c0,.06,0,.11,0,.16s0,.1,0,.16V216Zm32-32H184V104a8,8,0,0,0-2.34-5.66l-40-40A8,8,0,0,0,136,56H88V40h76.69L200,75.31Zm-56-32a8,8,0,0,1-8,8H88a8,8,0,0,1,0-16h48A8,8,0,0,1,144,152Zm0,32a8,8,0,0,1-8,8H88a8,8,0,0,1,0-16h48A8,8,0,0,1,144,184Z"/></symbol><symbol id="ph-regular-floppy-disk" viewBox="0 0 256 256"><path d="M219.31,72,184,36.69A15.86,15.86,0,0,0,172.69,32H48A16,16,0,0,0,32,48V208a16,16,0,0,0,16,16H208a16,16,0,0,0,16-16V83.31A15.86,15.86,0,0,0,219.31,72ZM168,208H88V152h80Zm40,0H184V152a16,16,0,0,0-16-16H88a16,16,0,0,0-16,16v56H48V48H172.69L208,83.31ZM160,72a8,8,0,0,1-8,8H96a8,8,0,0,1,0-16h56A8,8,0,0,1,160,72Z"/></symbol><symbol id="ph-regular-folder" viewBox="0 0 256 256"><path d="M216,72H131.31L104,44.69A15.86,15.86,0,0,0,92.69,40H40A16,16,0,0,0,24,56V200.62A15.4,15.4,0,0,0,39.38,216H216.89A15.13,15.13,0,0,0,232,200.89V88A16,16,0,0,0,216,72ZM40,56H92.69l16,16H40ZM216,200H40V88H216Z"/></symbol><symbol id="ph-regular-folder-open" viewBox="0 0 256 256"><path d="M245,110.64A16,16,0,0,0,232,104H216V88a16,16,0,0,0-16-16H130.67L102.94,51.2a16.14,16.14,0,0,0-9.6-3.2H40A16,16,0,0,0,24,64V208h0a8,8,0,0,0,8,8H211.1a8,8,0,0,0,7.59-5.47l28.49-85.47A16.05,16.05,0,0,0,245,110.64ZM93.34,64,123.2,86.4A8,8,0,0,0,128,88h72v16H69.77a16,16,0,0,0-15.18,10.94L40,158.7V64Zm112,136H43.1l26.67-80H232Z"/></symbol><symbol id="ph-regular-folder-plus" viewBox="0 0 256 256"><path d="M216,72H131.31L104,44.69A15.86,15.86,0,0,0,92.69,40H40A16,16,0,0,0,24,56V200.62A15.4,15.4,0,0,0,39.38,216H216.89A15.13,15.13,0,0,0,232,200.89V88A16,16,0,0,0,216,72ZM92.69,56l16,16H40V56ZM216,200H40V88H216Zm-88-88a8,8,0,0,1,8,8v16h16a8,8,0,0,1,0,16H136v16a8,8,0,0,1-16,0V152H104a8,8,0,0,1,0-16h16V120A8,8,0,0,1,128,112Z"/></symbol><symbol id="ph-regular-folder-simple-plus" viewBox="0 0 256 256"><path d="M216,72H130.67L102.93,51.2a16.12,16.12,0,0,0-9.6-3.2H40A16,16,0,0,0,24,64V200a16,16,0,0,0,16,16H216.89A15.13,15.13,0,0,0,232,200.89V88A16,16,0,0,0,216,72Zm0,128H40V64H93.33L123.2,86.4A8,8,0,0,0,128,88h88Zm-56-56a8,8,0,0,1-8,8H136v16a8,8,0,0,1-16,0V152H104a8,8,0,0,1,0-16h16V120a8,8,0,0,1,16,0v16h16A8,8,0,0,1,160,144Z"/></symbol><symbol id="ph-regular-house" viewBox="0 0 256 256"><path d="M219.31,108.68l-80-80a16,16,0,0,0-22.62,0l-80,80A15.87,15.87,0,0,0,32,120v96a8,8,0,0,0,8,8h64a8,8,0,0,0,8-8V160h32v56a8,8,0,0,0,8,8h64a8,8,0,0,0,8-8V120A15.87,15.87,0,0,0,219.31,108.68ZM208,208H160V152a8,8,0,0,0-8-8H104a8,8,0,0,0-8,8v56H48V120l80-80,80,80Z"/></symbol><symbol id="ph-regular-info" viewBox="0 0 256 256"><path d="M128,24A104,104,0,1,0,232,128,104.11,104.11,0,0,0,128,24Zm0,192a88,88,0,1,1,88-88A88.1,88.1,0,0,1,128,216Zm16-40a8,8,0,0,1-8,8,16,16,0,0,1-16-16V128a8,8,0,0,1,0-16,16,16,0,0,1,16,16v40A8,8,0,0,1,144,176ZM112,84a12,12,0,1,1,12,12A12,12,0,0,1,112,84Z"/></symbol><symbol id="ph-regular-link" viewBox="0 0 256 256"><path d="M240,88.23a54.43,54.43,0,0,1-16,37L189.25,160a54.27,54.27,0,0,1-38.63,16h-.05A54.63,54.63,0,0,1,96,119.84a8,8,0,0,1,16,.45A38.62,38.62,0,0,0,150.58,160h0a38.39,38.39,0,0,0,27.31-11.31l34.75-34.75a38.63,38.63,0,0,0-54.63-54.63l-11,11A8,8,0,0,1,135.7,59l11-11A54.65,54.65,0,0,1,224,48,54.86,54.86,0,0,1,240,88.23ZM109,185.66l-11,11A38.41,38.41,0,0,1,70.6,208h0a38.63,38.63,0,0,1-27.29-65.94L78,107.31A38.63,38.63,0,0,1,144,135.71a8,8,0,0,0,16,.45A54.86,54.86,0,0,0,144,96a54.65,54.65,0,0,0-77.27,0L32,130.75A54.62,54.62,0,0,0,70.56,224h0a54.28,54.28,0,0,0,38.64-16l11-11A8,8,0,0,0,109,185.66Z"/></symbol><symbol id="ph-regular-list" viewBox="0 0 256 256"><path d="M224,128a8,8,0,0,1-8,8H40a8,8,0,0,1,0-16H216A8,8,0,0,1,224,128ZM40,72H216a8,8,0,0,0,0-16H40a8,8,0,0,0,0,16ZM216,184H40a8,8,0,0,0,0,16H216a8,8,0,0,0,0-16Z"/></symbol><symbol id="ph-regular-minus" viewBox="0 0 256 256"><path d="M224,128a8,8,0,0,1-8,8H40a8,8,0,0,1,0-16H216A8,8,0,0,1,224,128Z"/></symbol><symbol id="ph-regular-package" viewBox="0 0 256 256"><path d="M223.68,66.15,135.68,18a15.88,15.88,0,0,0-15.36,0l-88,48.17a16,16,0,0,0-8.32,14v95.64a16,16,0,0,0,8.32,14l88,48.17a15.88,15.88,0,0,0,15.36,0l88-48.17a16,16,0,0,0,8.32-14V80.18A16,16,0,0,0,223.68,66.15ZM128,32l80.34,44-29.77,16.3-80.35-44ZM128,120,47.66,76l33.9-18.56,80.34,44ZM40,90l80,43.78v85.79L40,175.82Zm176,85.78h0l-80,43.79V133.82l32-17.51V152a8,8,0,0,0,16,0V107.55L216,90v85.77Z"/></symbol><symbol id="ph-regular-plus" viewBox="0 0 256 256"><path d="M224,128a8,8,0,0,1-8,8H136v80a8,8,0,0,1-16,0V136H40a8,8,0,0,1,0-16h80V40a8,8,0,0,1,16,0v80h80A8,8,0,0,1,224,128Z"/></symbol><symbol id="ph-regular-sign-out" viewBox="0 0 256 256"><path d="M120,216a8,8,0,0,1-8,8H48a8,8,0,0,1-8-8V40a8,8,0,0,1,8-8h64a8,8,0,0,1,0,16H56V208h56A8,8,0,0,1,120,216Zm109.66-93.66-40-40a8,8,0,0,0-11.32,11.32L204.69,120H112a8,8,0,0,0,0,16h92.69l-26.35,26.34a8,8,0,0,0,11.32,11.32l40-40A8,8,0,0,0,229.66,122.34Z"/></symbol><symbol id="ph-regular-sliders-horizontal" viewBox="0 0 256 256"><path d="M40,88H73a32,32,0,0,0,62,0h81a8,8,0,0,0,0-16H135a32,32,0,0,0-62,0H40a8,8,0,0,0,0,16Zm64-24A16,16,0,1,1,88,80,16,16,0,0,1,104,64ZM216,168H199a32,32,0,0,0-62,0H40a8,8,0,0,0,0,16h97a32,32,0,0,0,62,0h17a8,8,0,0,0,0-16Zm-48,24a16,16,0,1,1,16-16A16,16,0,0,1,168,192Z"/></symbol><symbol id="ph-regular-star" viewBox="0 0 256 256"><path d="M239.18,97.26A16.38,16.38,0,0,0,224.92,86l-59-4.76L143.14,26.15a16.36,16.36,0,0,0-30.27,0L90.11,81.23,31.08,86a16.46,16.46,0,0,0-9.37,28.86l45,38.83L53,211.75a16.38,16.38,0,0,0,24.5,17.82L128,198.49l50.53,31.08A16.4,16.4,0,0,0,203,211.75l-13.76-58.07,45-38.83A16.43,16.43,0,0,0,239.18,97.26Zm-15.34,5.47-48.7,42a8,8,0,0,0-2.56,7.91l14.88,62.8a.37.37,0,0,1-.17.48c-.18.14-.23.11-.38,0l-54.72-33.65a8,8,0,0,0-8.38,0L69.09,215.94c-.15.09-.19.12-.38,0a.37.37,0,0,1-.17-.48l14.88-62.8a8,8,0,0,0-2.56-7.91l-48.7-42c-.12-.1-.23-.19-.13-.5s.18-.27.33-.29l63.92-5.16A8,8,0,0,0,103,91.86l24.62-59.61c.08-.17.11-.25.35-.25s.27.08.35.25L153,91.86a8,8,0,0,0,6.75,4.92l63.92,5.16c.15,0,.24,0,.33.29S224,102.63,223.84,102.73Z"/></symbol><symbol id="ph-regular-terminal-window" viewBox="0 0 256 256"><path d="M128,128a8,8,0,0,1-3,6.25l-40,32a8,8,0,1,1-10-12.5L107.19,128,75,102.25a8,8,0,1,1,10-12.5l40,32A8,8,0,0,1,128,128Zm48,24H136a8,8,0,0,0,0,16h40a8,8,0,0,0,0-16Zm56-96V200a16,16,0,0,1-16,16H40a16,16,0,0,1-16-16V56A16,16,0,0,1,40,40H216A16,16,0,0,1,232,56ZM216,200V56H40V200H216Z"/></symbol><symbol id="ph-regular-trash" viewBox="0 0 256 256"><path d="M216,48H176V40a24,24,0,0,0-24-24H104A24,24,0,0,0,80,40v8H40a8,8,0,0,0,0,16h8V208a16,16,0,0,0,16,16H192a16,16,0,0,0,16-16V64h8a8,8,0,0,0,0-16ZM96,40a8,8,0,0,1,8-8h48a8,8,0,0,1,8,8v8H96Zm96,168H64V64H192ZM112,104v64a8,8,0,0,1-16,0V104a8,8,0,0,1,16,0Zm48,0v64a8,8,0,0,1-16,0V104a8,8,0,0,1,16,0Z"/></symbol><symbol id="ph-regular-tray" viewBox="0 0 256 256"><path d="M208,32H48A16,16,0,0,0,32,48V208a16,16,0,0,0,16,16H208a16,16,0,0,0,16-16V48A16,16,0,0,0,208,32Zm0,16V152h-28.7A15.86,15.86,0,0,0,168,156.69L148.69,176H107.31L88,156.69A15.86,15.86,0,0,0,76.69,152H48V48Zm0,160H48V168H76.69L96,187.31A15.86,15.86,0,0,0,107.31,192h41.38A15.86,15.86,0,0,0,160,187.31L179.31,168H208v40Z"/></symbol><symbol id="ph-regular-upload-simple" viewBox="0 0 256 256"><path d="M224,144v64a8,8,0,0,1-8,8H40a8,8,0,0,1-8-8V144a8,8,0,0,1,16,0v56H208V144a8,8,0,0,1,16,0ZM93.66,77.66,120,51.31V144a8,8,0,0,0,16,0V51.31l26.34,26.35a8,8,0,0,0,11.32-11.32l-40-40a8,8,0,0,0-11.32,0l-40,40A8,8,0,0,0,93.66,77.66Z"/></symbol><symbol id="ph-regular-user-switch" viewBox="0 0 256 256"><path d="M253.66,133.66l-24,24a8,8,0,0,1-11.32,0l-24-24a8,8,0,0,1,11.32-11.32L216,132.69V128A88,88,0,0,0,56.49,76.67a8,8,0,0,1-13-9.34A104,104,0,0,1,232,128v4.69l10.34-10.35a8,8,0,0,1,11.32,11.32Zm-41.18,55A104,104,0,0,1,24,128v-4.69L13.66,133.66A8,8,0,0,1,2.34,122.34l24-24a8,8,0,0,1,11.32,0l24,24a8,8,0,0,1-11.32,11.32L40,123.31V128a87.62,87.62,0,0,0,22.24,58.41A79.66,79.66,0,0,1,98.3,157.66a48,48,0,1,1,59.4,0,79.59,79.59,0,0,1,36.08,28.78,89.68,89.68,0,0,0,5.71-7.11,8,8,0,0,1,13,9.34ZM128,152a32,32,0,1,0-32-32A32,32,0,0,0,128,152Zm0,64a88.2,88.2,0,0,0,53.92-18.49,64,64,0,0,0-107.84,0A87.57,87.57,0,0,0,128,216Z"/></symbol><symbol id="ph-regular-warning" viewBox="0 0 256 256"><path d="M236.8,188.09,149.35,36.22h0a24.76,24.76,0,0,0-42.7,0L19.2,188.09a23.51,23.51,0,0,0,0,23.72A24.35,24.35,0,0,0,40.55,224h174.9a24.35,24.35,0,0,0,21.33-12.19A23.51,23.51,0,0,0,236.8,188.09ZM222.93,203.8a8.5,8.5,0,0,1-7.48,4.2H40.55a8.5,8.5,0,0,1-7.48-4.2,7.59,7.59,0,0,1,0-7.72L120.52,44.21a8.75,8.75,0,0,1,15,0l87.45,151.87A7.59,7.59,0,0,1,222.93,203.8ZM120,144V104a8,8,0,0,1,16,0v40a8,8,0,0,1-16,0Zm20,36a12,12,0,1,1-12-12A12,12,0,0,1,140,180Z"/></symbol><symbol id="ph-regular-windows-logo" viewBox="0 0 256 256"><path d="M208,136H128a8,8,0,0,0-8,8v57.45a8,8,0,0,0,6.57,7.88l80,14.54A7.61,7.61,0,0,0,208,224a8,8,0,0,0,8-8V144A8,8,0,0,0,208,136Zm-8,70.41-64-11.63V152h64ZM96,136H32a8,8,0,0,0-8,8v40a8,8,0,0,0,6.57,7.87l64,11.64a8.54,8.54,0,0,0,1.43.13,8,8,0,0,0,8-8V144A8,8,0,0,0,96,136Zm-8,50.05-48-8.73V152H88ZM213.13,33.86a8,8,0,0,0-6.56-1.73l-80,14.55A8,8,0,0,0,120,54.55V112a8,8,0,0,0,8,8h80a8,8,0,0,0,8-8V40A8,8,0,0,0,213.13,33.86ZM200,104H136V61.22l64-11.63ZM101.13,54.22a8,8,0,0,0-6.56-1.73l-64,11.64A8,8,0,0,0,24,72v40a8,8,0,0,0,8,8H96a8,8,0,0,0,8-8V60.36A8,8,0,0,0,101.13,54.22ZM88,104H40V78.68L88,70Z"/></symbol><symbol id="ph-regular-x" viewBox="0 0 256 256"><path d="M205.66,194.34a8,8,0,0,1-11.32,11.32L128,139.31,61.66,205.66a8,8,0,0,1-11.32-11.32L116.69,128,50.34,61.66A8,8,0,0,1,61.66,50.34L128,116.69l66.34-66.35a8,8,0,0,1,11.32,11.32L139.31,128Z"/></symbol><symbol id="ph-regular-x-circle" viewBox="0 0 256 256"><path d="M165.66,101.66,139.31,128l26.35,26.34a8,8,0,0,1-11.32,11.32L128,139.31l-26.34,26.35a8,8,0,0,1-11.32-11.32L116.69,128,90.34,101.66a8,8,0,0,1,11.32-11.32L128,116.69l26.34-26.35a8,8,0,0,1,11.32,11.32ZM232,128A104,104,0,1,1,128,24,104.11,104.11,0,0,1,232,128Zm-16,0a88,88,0,1,0-88,88A88.1,88.1,0,0,0,216,128Z"/></symbol><symbol id="ph-bold-arrow-right" viewBox="0 0 256 256"><path d="M224.49,136.49l-72,72a12,12,0,0,1-17-17L187,140H40a12,12,0,0,1,0-24H187L135.51,64.48a12,12,0,0,1,17-17l72,72A12,12,0,0,1,224.49,136.49Z"/></symbol><symbol id="ph-bold-broadcast" viewBox="0 0 256 256"><path d="M128,84a44,44,0,1,0,44,44A44.05,44.05,0,0,0,128,84Zm0,64a20,20,0,1,1,20-20A20,20,0,0,1,128,148Zm77.39,12.7A83.94,83.94,0,0,1,190.61,184a12,12,0,0,1-17.89-16,59.92,59.92,0,0,0,0-80,12,12,0,0,1,17.89-16,84.07,84.07,0,0,1,14.78,88.7ZM83.28,168a12,12,0,0,1-17.89,16,83.94,83.94,0,0,1,0-112A12,12,0,0,1,83.28,88a59.92,59.92,0,0,0,0,80ZM252,128a123.63,123.63,0,0,1-35.43,86.78A12,12,0,1,1,199.43,198a99.88,99.88,0,0,0,0-140,12,12,0,0,1,17.14-16.8A123.63,123.63,0,0,1,252,128ZM56.57,198a12,12,0,0,1-17.14,16.8,123.89,123.89,0,0,1,0-173.56A12,12,0,0,1,56.57,58a99.88,99.88,0,0,0,0,140Z"/></symbol><symbol id="ph-bold-check" viewBox="0 0 256 256"><path d="M232.49,80.49l-128,128a12,12,0,0,1-17,0l-56-56a12,12,0,1,1,17-17L96,183,215.51,63.51a12,12,0,0,1,17,17Z"/></symbol><symbol id="ph-bold-clipboard-text" viewBox="0 0 256 256"><path d="M172,164a12,12,0,0,1-12,12H96a12,12,0,0,1,0-24h64A12,12,0,0,1,172,164Zm-12-52H96a12,12,0,0,0,0,24h64a12,12,0,0,0,0-24Zm60-64V216a20,20,0,0,1-20,20H56a20,20,0,0,1-20-20V48A20,20,0,0,1,56,28H90.53a51.88,51.88,0,0,1,74.94,0H200A20,20,0,0,1,220,48ZM100.29,60h55.42a28,28,0,0,0-55.42,0ZM196,52H178.59A52.13,52.13,0,0,1,180,64v8a12,12,0,0,1-12,12H88A12,12,0,0,1,76,72V64a52.13,52.13,0,0,1,1.41-12H60V212H196Z"/></symbol><symbol id="ph-bold-copy" viewBox="0 0 256 256"><path d="M216,28H88A12,12,0,0,0,76,40V76H40A12,12,0,0,0,28,88V216a12,12,0,0,0,12,12H168a12,12,0,0,0,12-12V180h36a12,12,0,0,0,12-12V40A12,12,0,0,0,216,28ZM156,204H52V100H156Zm48-48H180V88a12,12,0,0,0-12-12H100V52H204Z"/></symbol><symbol id="ph-bold-download-simple" viewBox="0 0 256 256"><path d="M228,144v64a12,12,0,0,1-12,12H40a12,12,0,0,1-12-12V144a12,12,0,0,1,24,0v52H204V144a12,12,0,0,1,24,0Zm-108.49,8.49a12,12,0,0,0,17,0l40-40a12,12,0,0,0-17-17L140,115V32a12,12,0,0,0-24,0v83L96.49,95.51a12,12,0,0,0-17,17Z"/></symbol><symbol id="ph-bold-file-arrow-up" viewBox="0 0 256 256"><path d="M216.49,79.52l-56-56A12,12,0,0,0,152,20H56A20,20,0,0,0,36,40V216a20,20,0,0,0,20,20H200a20,20,0,0,0,20-20V88A12,12,0,0,0,216.49,79.52ZM183,80H160V57ZM60,212V44h76V92a12,12,0,0,0,12,12h48V212Zm100.49-72.49a12,12,0,0,1-17,17L140,153v31a12,12,0,0,1-24,0V153l-3.51,3.52a12,12,0,0,1-17-17l24-24a12,12,0,0,1,17,0Z"/></symbol><symbol id="ph-bold-floppy-disk" viewBox="0 0 256 256"><path d="M222.14,69.17,186.83,33.86A19.86,19.86,0,0,0,172.69,28H48A20,20,0,0,0,28,48V208a20,20,0,0,0,20,20H208a20,20,0,0,0,20-20V83.31A19.86,19.86,0,0,0,222.14,69.17ZM164,204H92V160h72Zm40,0H188V156a20,20,0,0,0-20-20H88a20,20,0,0,0-20,20v48H52V52H171l33,33ZM164,84a12,12,0,0,1-12,12H96a12,12,0,0,1,0-24h56A12,12,0,0,1,164,84Z"/></symbol><symbol id="ph-bold-folder-plus" viewBox="0 0 256 256"><path d="M216,68H133.39l-26-29.29a20,20,0,0,0-15-6.71H40A20,20,0,0,0,20,52V200.62A19.41,19.41,0,0,0,39.38,220H216.89A19.13,19.13,0,0,0,236,200.89V88A20,20,0,0,0,216,68ZM90.61,56l10.67,12H44V56ZM212,196H44V92H212Zm-72-76v12h12a12,12,0,0,1,0,24H140v12a12,12,0,0,1-24,0V156H104a12,12,0,0,1,0-24h12V120a12,12,0,0,1,24,0Z"/></symbol><symbol id="ph-bold-folder-simple-plus" viewBox="0 0 256 256"><path d="M216,68H132L105.33,48a20.12,20.12,0,0,0-12-4H40A20,20,0,0,0,20,64V200a20,20,0,0,0,20,20H216.89A19.13,19.13,0,0,0,236,200.89V88A20,20,0,0,0,216,68Zm-4,128H44V68H92l28.8,21.6A12,12,0,0,0,128,92h84Zm-84-88a12,12,0,0,1,12,12v12h12a12,12,0,0,1,0,24H140v12a12,12,0,0,1-24,0V156H104a12,12,0,0,1,0-24h12V120A12,12,0,0,1,128,108Z"/></symbol><symbol id="ph-bold-link" viewBox="0 0 256 256"><path d="M117.18,188.74a12,12,0,0,1,0,17l-5.12,5.12A58.26,58.26,0,0,1,70.6,228h0A58.62,58.62,0,0,1,29.14,127.92L63.89,93.17a58.64,58.64,0,0,1,98.56,28.11,12,12,0,1,1-23.37,5.44,34.65,34.65,0,0,0-58.22-16.58L46.11,144.89A34.62,34.62,0,0,0,70.57,204h0a34.41,34.41,0,0,0,24.49-10.14l5.11-5.12A12,12,0,0,1,117.18,188.74ZM226.83,45.17a58.65,58.65,0,0,0-82.93,0l-5.11,5.11a12,12,0,0,0,17,17l5.12-5.12a34.63,34.63,0,1,1,49,49L175.1,145.86A34.39,34.39,0,0,1,150.61,156h0a34.63,34.63,0,0,1-33.69-26.72,12,12,0,0,0-23.38,5.44A58.64,58.64,0,0,0,150.56,180h.05a58.28,58.28,0,0,0,41.47-17.17l34.75-34.75a58.62,58.62,0,0,0,0-82.91Z"/></symbol><symbol id="ph-bold-plus" viewBox="0 0 256 256"><path d="M228,128a12,12,0,0,1-12,12H140v76a12,12,0,0,1-24,0V140H40a12,12,0,0,1,0-24h76V40a12,12,0,0,1,24,0v76h76A12,12,0,0,1,228,128Z"/></symbol><symbol id="ph-bold-trash" viewBox="0 0 256 256"><path d="M216,48H180V36A28,28,0,0,0,152,8H104A28,28,0,0,0,76,36V48H40a12,12,0,0,0,0,24h4V208a20,20,0,0,0,20,20H192a20,20,0,0,0,20-20V72h4a12,12,0,0,0,0-24ZM100,36a4,4,0,0,1,4-4h48a4,4,0,0,1,4,4V48H100Zm88,168H68V72H188ZM116,104v64a12,12,0,0,1-24,0V104a12,12,0,0,1,24,0Zm48,0v64a12,12,0,0,1-24,0V104a12,12,0,0,1,24,0Z"/></symbol><symbol id="ph-bold-upload-simple" viewBox="0 0 256 256"><path d="M228,144v64a12,12,0,0,1-12,12H40a12,12,0,0,1-12-12V144a12,12,0,0,1,24,0v52H204V144a12,12,0,0,1,24,0ZM96.49,80.49,116,61v83a12,12,0,0,0,24,0V61l19.51,19.52a12,12,0,1,0,17-17l-40-40a12,12,0,0,0-17,0l-40,40a12,12,0,1,0,17,17Z"/></symbol><symbol id="ph-bold-user-switch" viewBox="0 0 256 256"><path d="M213,174.26A12,12,0,0,0,196.24,177q-1.47,2.06-3.05,4a76,76,0,0,0-30-28.37,48,48,0,1,0-70.28.08,76.8,76.8,0,0,0-30.06,28.25,83.62,83.62,0,0,1-18.3-43.55,12,12,0,0,0,16-17.88l-20-20a12,12,0,0,0-17,0l-20,20a12,12,0,0,0,16.83,17.1,107.88,107.88,0,0,0,37.72,73.61,12.33,12.33,0,0,0,1.88,1.57,107.82,107.82,0,0,0,136.47-.26,13.09,13.09,0,0,0,1.28-1.06,107.66,107.66,0,0,0,18-19.46A12,12,0,0,0,213,174.26ZM128,96a24,24,0,1,1-24,24A24,24,0,0,1,128,96Zm0,116a83.52,83.52,0,0,1-46.94-14.37,52,52,0,0,1,93.88,0A84.07,84.07,0,0,1,128,212Zm124.49-75.51-20,20a12,12,0,0,1-17,0l-20-20a12,12,0,0,1,16-17.88A84,84,0,0,0,59.74,79,12,12,0,1,1,40.26,65a108,108,0,0,1,195.4,54.4,12,12,0,0,1,16.83,17.1Z"/></symbol><symbol id="ph-fill-check-circle" viewBox="0 0 256 256"><path d="M128,24A104,104,0,1,0,232,128,104.11,104.11,0,0,0,128,24Zm45.66,85.66-56,56a8,8,0,0,1-11.32,0l-24-24a8,8,0,0,1,11.32-11.32L112,148.69l50.34-50.35a8,8,0,0,1,11.32,11.32Z"/></symbol><symbol id="ph-fill-star" viewBox="0 0 256 256"><path d="M234.29,114.85l-45,38.83L203,211.75a16.4,16.4,0,0,1-24.5,17.82L128,198.49,77.47,229.57A16.4,16.4,0,0,1,53,211.75l13.76-58.07-45-38.83A16.46,16.46,0,0,1,31.08,86l59-4.76,22.76-55.08a16.36,16.36,0,0,1,30.27,0l22.75,55.08,59,4.76a16.46,16.46,0,0,1,9.37,28.86Z"/></symbol><symbol id="ph-duotone-eye-slash" viewBox="0 0 256 256"><path d="M128,56C48,56,16,128,16,128s32,72,112,72,112-72,112-72S208,56,128,56Zm0,112a40,40,0,1,1,40-40A40,40,0,0,1,128,168Z" opacity="0.2"/><path d="M53.92,34.62A8,8,0,1,0,42.08,45.38L61.32,66.55C25,88.84,9.38,123.2,8.69,124.76a8,8,0,0,0,0,6.5c.35.79,8.82,19.57,27.65,38.4C61.43,194.74,93.12,208,128,208a127.11,127.11,0,0,0,52.07-10.83l22,24.21a8,8,0,1,0,11.84-10.76Zm47.33,75.84,41.67,45.85a32,32,0,0,1-41.67-45.85ZM128,192c-30.78,0-57.67-11.19-79.93-33.25A133.16,133.16,0,0,1,25,128c4.69-8.79,19.66-33.39,47.35-49.38l18,19.75a48,48,0,0,0,63.66,70l14.73,16.2A112,112,0,0,1,128,192Zm6-95.43a8,8,0,0,1,3-15.72,48.16,48.16,0,0,1,38.77,42.64,8,8,0,0,1-7.22,8.71,6.39,6.39,0,0,1-.75,0,8,8,0,0,1-8-7.26A32.09,32.09,0,0,0,134,96.57Zm113.28,34.69c-.42.94-10.55,23.37-33.36,43.8a8,8,0,1,1-10.67-11.92A132.77,132.77,0,0,0,231.05,128a133.15,133.15,0,0,0-23.12-30.77C185.67,75.19,158.78,64,128,64a118.37,118.37,0,0,0-19.36,1.57A8,8,0,1,1,106,49.79,134,134,0,0,1,128,48c34.88,0,66.57,13.26,91.66,38.35,18.83,18.83,27.3,37.62,27.65,38.41A8,8,0,0,1,247.31,131.26Z"/></symbol><symbol id="ph-duotone-files" viewBox="0 0 256 256"><path d="M208,72V184a8,8,0,0,1-8,8H176V104L136,64H80V40a8,8,0,0,1,8-8h80Z" opacity="0.2"/><path d="M213.66,66.34l-40-40A8,8,0,0,0,168,24H88A16,16,0,0,0,72,40V56H56A16,16,0,0,0,40,72V216a16,16,0,0,0,16,16H168a16,16,0,0,0,16-16V200h16a16,16,0,0,0,16-16V72A8,8,0,0,0,213.66,66.34ZM168,216H56V72h76.69L168,107.31v84.53c0,.06,0,.11,0,.16s0,.1,0,.16V216Zm32-32H184V104a8,8,0,0,0-2.34-5.66l-40-40A8,8,0,0,0,136,56H88V40h76.69L200,75.31Zm-56-32a8,8,0,0,1-8,8H88a8,8,0,0,1,0-16h48A8,8,0,0,1,144,152Zm0,32a8,8,0,0,1-8,8H88a8,8,0,0,1,0-16h48A8,8,0,0,1,144,184Z"/></symbol><symbol id="ph-duotone-folder-plus" viewBox="0 0 256 256"><path d="M128,80H32V56a8,8,0,0,1,8-8H92.69a8,8,0,0,1,5.65,2.34Z" opacity="0.2"/><path d="M216,72H131.31L104,44.69A15.86,15.86,0,0,0,92.69,40H40A16,16,0,0,0,24,56V200.62A15.4,15.4,0,0,0,39.38,216H216.89A15.13,15.13,0,0,0,232,200.89V88A16,16,0,0,0,216,72ZM92.69,56l16,16H40V56ZM216,200H40V88H216Zm-88-88a8,8,0,0,1,8,8v16h16a8,8,0,0,1,0,16H136v16a8,8,0,0,1-16,0V152H104a8,8,0,0,1,0-16h16V120A8,8,0,0,1,128,112Z"/></symbol><symbol id="ph-duotone-package" viewBox="0 0 256 256"><path d="M128,129.09V232a8,8,0,0,1-3.84-1l-88-48.18a8,8,0,0,1-4.16-7V80.18a8,8,0,0,1,.7-3.25Z" opacity="0.2"/><path d="M223.68,66.15,135.68,18a15.88,15.88,0,0,0-15.36,0l-88,48.17a16,16,0,0,0-8.32,14v95.64a16,16,0,0,0,8.32,14l88,48.17a15.88,15.88,0,0,0,15.36,0l88-48.17a16,16,0,0,0,8.32-14V80.18A16,16,0,0,0,223.68,66.15ZM128,32l80.34,44-29.77,16.3-80.35-44ZM128,120,47.66,76l33.9-18.56,80.34,44ZM40,90l80,43.78v85.79L40,175.82Zm176,85.78h0l-80,43.79V133.82l32-17.51V152a8,8,0,0,0,16,0V107.55L216,90v85.77Z"/></symbol><symbol id="ph-duotone-tray" viewBox="0 0 256 256"><path d="M216,48V160H179.31a8,8,0,0,0-5.66,2.34l-19.31,19.32a8,8,0,0,1-5.66,2.34H107.31a8,8,0,0,1-5.66-2.34L82.34,162.34A8,8,0,0,0,76.68,160H40V48a8,8,0,0,1,8-8H208A8,8,0,0,1,216,48Z" opacity="0.2"/><path d="M208,32H48A16,16,0,0,0,32,48V208a16,16,0,0,0,16,16H208a16,16,0,0,0,16-16V48A16,16,0,0,0,208,32Zm0,16V152h-28.7A15.86,15.86,0,0,0,168,156.69L148.69,176H107.31L88,156.68A15.89,15.89,0,0,0,76.69,152H48V48Zm0,160H48V168H76.69L96,187.32A15.89,15.89,0,0,0,107.31,192h41.38A15.86,15.86,0,0,0,160,187.31L179.31,168H208v40Z"/></symbol></svg>
